<svg width="160" height="40" viewBox="0 0 160 40" fill="none" xmlns="http://www.w3.org/2000/svg">
  <rect width="160" height="40" rx="10" fill="#0C223F" />
  <path d="M34 10H72L80 24H88L68 10H34Z" fill="#F1F2F3" />
  <rect x="36" y="18" width="42" height="8" rx="4" fill="#1D4A79" />
  <path d="M100 8H116C125.388 8 133 15.612 133 25C133 29.179 130.917 32.897 127.008 35.037L121.412 40H106.588L102 35H117L123 29H109C104.582 29 101 25.418 101 21C101 16.582 104.582 13 109 13H125C125 12.4477 124.552 12 124 12H109C103.477 12 99 16.477 99 22C99 27.523 103.477 32 109 32H123L118 27H109C105.134 27 102 23.866 102 20C102 17.641 103.119 15.583 105 14H99V8Z" fill="#F1F2F3" />
</svg>


